# xmcd
#
# Track frame offsets:
#	150
#	14562
#	34701
#	57449
#	80513
#	94259
#	109950
#	122493
#	137767
#	152966
#	168289
#	181867
#
# Disc length: 2767 seconds
#
# Revision: 0
# Processed by: cddbd v1.5PL3 Copyright (c) Steve Scherf et al.
# Submitted via: dBpowerAMP V4.0
#
DISCID=9c0acd0c
DTITLE=Ray Kaminsky - Ghosts of the Blues
DYEAR=2001
DGENRE=
TTITLE0=Write Me a Few More Lines
TTITLE1=Mississippi Blues
TTITLE2=Wayfaring Stranger
TTITLE3=Hesitation Blues
TTITLE4=Good Old Wagon
TTITLE5=Six White Horses
TTITLE6=In the Jailhouse Now
TTITLE7=Come on in My Kitchen
TTITLE8=Oh Glory
TTITLE9=Palm Trees Shakin' in the Night
TTITLE10=Every Day of the Week
TTITLE11=Amazing Grace
EXTD=
EXTT0=
EXTT1=
EXTT2=
EXTT3=
EXTT4=
EXTT5=
EXTT6=
EXTT7=
EXTT8=
EXTT9=
EXTT10=
EXTT11=
PLAYORDER=
